<svg xmlns="http://www.w3.org/2000/svg" xmlns:xlink="http://www.w3.org/1999/xlink" viewBox="0 0 102.05 96.38"><defs><style>.cls-1{fill:none;}.cls-2{fill:url(#未命名的渐变_95);}.cls-3{fill:url(#未命名的渐变_95-2);}</style><linearGradient id="未命名的渐变_95" x1="25.41" y1="32.7" x2="76.64" y2="32.7" gradientUnits="userSpaceOnUse"><stop offset="0.01" stop-color="#e4007f"/><stop offset="1" stop-color="#f39800"/></linearGradient><linearGradient id="未命名的渐变_95-2" x1="51.03" y1="73.53" x2="51.03" y2="43.95" xlink:href="#未命名的渐变_95"/></defs><g id="图层_2" data-name="图层 2"><g id="图层_1-2" data-name="图层 1"><rect class="cls-1" width="102.05" height="96.38"/><path class="cls-2" d="M42.33,24.24H76.64a0,0,0,0,1,0,0v0A16.92,16.92,0,0,1,59.72,41.16H25.41a0,0,0,0,1,0,0v0A16.92,16.92,0,0,1,42.33,24.24Z"/><path class="cls-3" d="M42.48,43.21H59.59a0,0,0,0,1,0,0V55A17.11,17.11,0,0,1,42.48,72.13h0a0,0,0,0,1,0,0V43.21A0,0,0,0,1,42.48,43.21Z"/></g></g></svg>